HIERARCHY
ROOT Hips
{
	OFFSET 0.00000 0.00000 0.00000
	CHANNELS 6 Xposition Yposition Zposition Yrotation Zrotation Xrotation 
	JOINT Lumbar
	{
		OFFSET 0 0 0
		CHANNELS 3 Zrotation Xrotation Yrotation
		JOINT Neck
		{
			OFFSET 0.00 0.2701 0.00
			CHANNELS 3 Zrotation Xrotation Yrotation
			End Site
			{
				OFFSET 0.00 0.1379 0.00
			}
		}
		JOINT RightShoulder
		{
			OFFSET 0.0119 0.2289 0.1181
			CHANNELS 3 Zrotation Xrotation Yrotation
			JOINT RightElbow
			{
				OFFSET 0.00 -0.1475 0.00
				CHANNELS 2 Zrotation Yrotation
				JOINT RightWrist
				{
					OFFSET 0.00 -0.1605 0.00
					CHANNELS 2 Zrotation Xrotation
					End Site
					{
						OFFSET 0.0040 -0.1068 0.0006
					}
				}
			}
		}
		JOINT LeftShoulder
		{
			OFFSET 0.0119 0.2289 -0.1181
			CHANNELS 3 Zrotation Xrotation Yrotation
			JOINT LeftElbow
			{
				OFFSET 0.00 -0.1475 0.00
				CHANNELS 2 Zrotation Yrotation
				JOINT LeftWrist
				{
					OFFSET 0.00 -0.1605 0.00
					CHANNELS 2 Zrotation Xrotation
					End Site
					{
						OFFSET 0.0040 -0.1068 -0.0006
					}
				}
			}
		}
	}
	JOINT RightHip
	{
		OFFSET 0.0316 -0.0424 0.0458
		CHANNELS 3 Zrotation Xrotation Yrotation
		JOINT RightKnee
		{
			OFFSET 0.00 -0.2438 0.00
			CHANNELS 1 Zrotation
			JOINT RightAnkle
			{
				OFFSET 0.00 -0.2449 0.00
				CHANNELS 3 Zrotation Xrotation Yrotation
				End Site
				{
					OFFSET 0.1237 -0.0542 0.0051
				}
			}
		}
	}
	JOINT LeftHip
	{
		OFFSET 0.0316 -0.0424 -0.0458
		CHANNELS 3 Zrotation Xrotation Yrotation
		JOINT LeftKnee
		{
			OFFSET 0.00 -0.2438 0.00
			CHANNELS 1 Zrotation
			JOINT LeftAnkle
			{
				OFFSET 0.00 -0.2449 0.00
				CHANNELS 3 Zrotation Xrotation Yrotation
				End Site
				{
					OFFSET 0.1237 -0.0542 -0.0051
				}
			}
		}
	}
}
MOTION
Frames: 14
Frame Time: 0.02
0.28693 0.39993 -0.01785 183.3799 0 -1.02363 18.14172 2.51128 -0.63946 -64.58002 -6.50695 -14.17497 56.13526 0.06937 27.75831 18.95183 95.17554 -7.51467 -9.91578 32.23803 26.71763 13.25624 47.2167 -71.89557 -9.72833 0.14358 83.41877 5.97809 -13.30821 -110.79329 -14.83484 -2.06744 -8.34509 73.27092 -4.9948 -5.11214 -79.47917 -6.05219 3.1419 4.96548
0.28682 0.40002 -0.01767 183.48935 0 -1.06218 17.78436 2.61499 -0.5679 -65.03754 -7.12158 -14.81001 56.51702 0.91897 27.69987 18.762 94.79464 -7.38103 -9.83267 32.00152 27.62378 13.0397 48.34423 -70.99319 -10.01241 -0.04497 83.19642 5.91088 -13.16791 -110.54634 -15.32921 -1.96521 -8.70463 73.32918 -5.22265 -5.3076 -80.84727 -5.60055 3.20192 5.47608
0.28667 0.40011 -0.01744 183.63063 0 -1.11349 17.39368 2.72351 -0.45261 -65.42299 -7.77305 -15.3567 56.74471 1.68554 27.5399 18.6103 94.61091 -7.30865 -9.75343 31.82122 28.46775 12.7245 49.30191 -70.23887 -10.3003 -0.15444 82.86542 5.83699 -12.94608 -110.13462 -15.79011 -1.86616 -9.1448 73.37815 -5.47629 -5.54093 -82.11507 -5.19754 3.23997 5.97299
0.28654 0.4002 -0.01724 183.75844 0 -1.15915 17.01828 2.82948 -0.35287 -65.83465 -8.40707 -15.9386 57.03416 2.48502 27.41815 18.4417 94.32551 -7.20869 -9.67639 31.62238 29.33291 12.45893 50.31391 -69.44299 -10.58644 -0.29281 82.57712 5.76859 -12.75287 -109.78413 -16.24665 -1.77045 -9.5263 73.43388 -5.71534 -5.75132 -83.42458 -4.77733 3.28861 6.46217
0.28643 0.40029 -0.01702 183.88241 0 -1.20438 16.64241 2.93734 -0.2729 -66.27935 -9.04613 -16.54121 57.36324 3.3056 27.32982 18.2706 94.0788 -7.10563 -9.58415 31.39993 30.22833 12.1705 51.42178 -68.53855 -10.87498 -0.45822 82.31436 5.69021 -12.59311 -109.48582 -16.78926 -1.65383 -10.00323 73.47862 -5.96687 -5.98792 -84.74785 -4.33492 3.33523 7.00886
0.28627 0.40038 -0.01682 184.02163 0 -1.2534 16.25949 3.0422 -0.13946 -66.63422 -9.68205 -17.08081 57.56992 4.06309 27.14853 18.11396 93.80322 -7.02434 -9.52347 31.23436 31.04715 11.90791 52.29135 -67.89334 -11.15913 -0.54996 81.97447 5.63154 -12.34516 -109.04248 -17.14256 -1.58177 -10.29898 73.54447 -6.19801 -6.17815 -86.01891 -3.95194 3.38011 7.43099
0.286 0.40048 -0.01666 184.1975 0 -1.3105 15.86614 3.13852 0.11448 -66.78095 -10.30696 -17.4543 57.49415 4.65476 26.72738 17.98897 93.39719 -6.98855 -9.55401 31.25475 31.65229 11.73193 52.52504 -67.95356 -11.42207 -0.45258 81.43808 5.62042 -11.87373 -108.23112 -16.99163 -1.63224 -10.08291 73.6668 -6.37129 -6.23089 -87.17843 -3.70861 3.43205 7.53853
0.28569 0.40058 -0.01653 184.38728 0 -1.37079 15.46663 3.2314 0.42373 -66.83507 -10.92559 -17.76942 57.29693 5.18699 26.21849 17.87727 92.95742 -6.97287 -9.61487 31.32292 32.18501 11.58672 52.52756 -68.26541 -11.68108 -0.28505 80.83025 5.6306 -11.31696 -107.28214 -16.64979 -1.72742 -9.68052 73.81144 -6.5224 -6.23531 -88.28731 -3.52618 3.48182 7.51734
0.2854 0.40068 -0.0164 184.56904 0 -1.42918 15.06942 3.32531 0.71853 -66.91655 -11.54302 -18.12071 57.14289 5.75505 25.75374 17.7587 92.53648 -6.94793 -9.65866 31.34002 32.76259 11.43422 52.64938 -68.445 -11.94743 -0.15326 80.26159 5.63666 -10.79907 -106.40132 -16.38724 -1.80221 -9.35707 73.94848 -6.68041 -6.26179 -89.41522 -3.32361 3.52828 7.53794
0.28512 0.40079 -0.01622 184.75869 0 -1.49011 14.67334 3.42191 0.97001 -67.05798 -12.18052 -18.43006 57.03344 6.28634 25.26368 17.64431 92.10764 -6.92522 -9.71739 31.48004 33.2895 11.25229 52.70796 -68.70385 -12.1925 -0.00239 79.65953 5.61979 -10.27655 -105.48883 -16.152 -1.8778 -9.05827 74.0744 -6.85225 -6.28956 -90.55852 -3.08927 3.59196 7.62657
0.2848 0.40088 -0.01613 184.93528 0 -1.54609 14.27367 3.51172 1.32397 -67.05319 -12.77215 -18.81176 56.80531 6.87702 24.81157 17.52468 91.68447 -6.90235 -9.75105 31.37844 33.90318 11.13735 52.84206 -68.85728 -12.4784 0.12436 79.11314 5.65486 -9.74614 -104.61448 -15.81885 -1.96179 -8.66582 74.22901 -6.99026 -6.30221 -91.65636 -2.93701 3.61974 7.54559
0.28441 0.40092 -0.01626 185.0677 0 -1.58984 13.86763 3.58612 1.94929 -66.67015 -13.25654 -19.42723 56.27125 7.68228 24.44453 17.37997 91.28677 -6.8691 -9.71746 30.56551 34.7944 11.22542 53.2717 -68.64221 -12.8994 0.16713 78.72433 5.83664 -9.20122 -103.85699 -15.22748 -2.06256 -8.03324 74.45607 -7.03509 -6.28864 -92.66385 -2.97752 3.5474 7.00623
0.28398 0.40095 -0.01648 185.18701 0 -1.62803 13.458 3.65329 2.67482 -66.14321 -13.69155 -20.11416 55.62468 8.54309 24.12625 17.23055 90.8947 -6.8353 -9.65599 29.51405 35.77179 11.37567 53.78029 -68.31492 -13.35758 0.18292 78.39696 6.06851 -8.65436 -103.14752 -14.54983 -2.16942 -7.31682 74.71117 -7.04729 -6.26075 -93.623 -3.10109 3.43941 6.30441
0.28356 0.40099 -0.01665 185.31551 0 -1.6673 13.04888 3.72214 3.35355 -65.68032 -14.1371 -20.75607 55.03495 9.35519 23.81402 17.08809 90.49806 -6.80519 -9.60081 28.59211 36.69703 11.48109 54.23387 -68.04818 -13.78476 0.2107 78.05118 6.27182 -8.1176 -102.43156 -13.9357 -2.2705 -6.65701 74.9548 -7.07796 -6.23663 -94.5906 -3.19975 3.34883 5.69156
